<!--?xml version="1.0" standalone="no"?-->
              <svg id="sw-js-blob-svg" viewBox="0 0 100 100" xmlns="http://www.w3.org/2000/svg" version="1.1">
                    <defs> 
                        <linearGradient id="sw-gradient" x1="0" x2="1" y1="1" y2="0">
                            <stop id="stop1" stop-color="rgba(252, 217, 17, 0.9725490196078431)" offset="0%"></stop>
                            <stop id="stop2" stop-color="rgba(252, 217, 17, 0.9725490196078431)" offset="100%"></stop>
                        </linearGradient>
                    </defs>
                <path fill="url(#sw-gradient)" d="M24.2,-33C31.6,-27.8,38.3,-21.2,41.9,-12.9C45.6,-4.7,46.2,5.3,42.4,12.8C38.6,20.3,30.3,25.3,22.5,30.9C14.7,36.5,7.4,42.7,-1.2,44.4C-9.7,46,-19.5,43.1,-27.2,37.5C-34.9,31.8,-40.5,23.4,-41.7,14.7C-42.9,6.1,-39.6,-2.9,-36.4,-11.6C-33.3,-20.3,-30.2,-28.9,-24.2,-34.6C-18.1,-40.3,-9.1,-43.1,-0.4,-42.6C8.3,-42.1,16.7,-38.3,24.2,-33Z" width="100%" height="100%" transform="translate(50 50)" stroke-width="0" style="transition: all 0.3s ease 0s;"></path>
              </svg>